<svg xmlns="http://www.w3.org/2000/svg" viewBox="18 42 540 158" role="img" aria-labelledby="index-logo-title">
  <title id="index-logo-title">Index</title>
  <defs>
    <filter id="indexLogoShadow" x="-20%" y="-20%" width="140%" height="150%" color-interpolation-filters="sRGB">
      <feDropShadow dx="0" dy="10" stdDeviation="12" flood-color="#052e35" flood-opacity="0.12"/>
    </filter>
    <linearGradient id="indexGraphStroke" x1="440" y1="65" x2="570" y2="175" gradientUnits="userSpaceOnUse">
      <stop stop-color="#ddf4f2"/>
      <stop offset="1" stop-color="#78d5d0"/>
    </linearGradient>
    <linearGradient id="indexNodeFill" x1="462" y1="73" x2="560" y2="170" gradientUnits="userSpaceOnUse">
      <stop stop-color="#fff"/>
      <stop offset="1" stop-color="#ddf4f2"/>
    </linearGradient>
  </defs>
  <g filter="url(#indexLogoShadow)">
    <text x="34" y="166" fill="#050606" font-family="Bodoni 72, Didot, Georgia, serif" font-size="144" font-weight="500" letter-spacing="0">Inde</text>
    <g transform="translate(-48 0)" stroke-linecap="round" stroke-linejoin="round">
      <path d="M401 72L447 119" stroke="#050606" stroke-width="18"/>
      <path d="M402 168L447 119" stroke="#050606" stroke-width="18"/>
      <path d="M447 119L505 70" stroke="url(#indexGraphStroke)" stroke-width="12"/>
      <path d="M447 119L507 170" stroke="url(#indexGraphStroke)" stroke-width="12"/>
      <path d="M447 119L548 119" stroke="#78d5d0" stroke-width="7"/>
      <path d="M505 70L548 119L507 170" stroke="#ddf4f2" stroke-width="7"/>
      <circle cx="447" cy="119" r="15" fill="#ddf4f2"/>
      <polygon points="505,49 524,60 524,82 505,93 486,82 486,60" fill="#052f37" stroke="url(#indexNodeFill)" stroke-width="6"/>
      <polygon points="548,98 567,109 567,131 548,142 529,131 529,109" fill="#052f37" stroke="url(#indexNodeFill)" stroke-width="6"/>
      <polygon points="507,149 526,160 526,182 507,193 488,182 488,160" fill="#052f37" stroke="url(#indexNodeFill)" stroke-width="6"/>
    </g>
  </g>
</svg>
