<svg xmlns="http://www.w3.org/2000/svg" viewBox="24 42 506 158" role="img" aria-labelledby="index-logo-title" shape-rendering="geometricPrecision">
  <title id="index-logo-title">Index</title>
  <g>
    <text x="34" y="166" fill="#050606" font-family="Bodoni 72, Didot, Georgia, serif" font-size="144" font-weight="500" letter-spacing="0">Inde</text>
    <g transform="translate(340 42)" stroke-linecap="round" stroke-linejoin="round">
      <path d="M13 30L59 77" stroke="#050606" stroke-width="19"/>
      <path d="M14 126L59 77" stroke="#050606" stroke-width="19"/>
      <path d="M122 21L158 77L122 133" fill="none" stroke="#ddf4f2" stroke-width="5"/>
      <path d="M59 77L122 21" stroke="#78d5d0" stroke-width="11"/>
      <path d="M59 77L122 133" stroke="#78d5d0" stroke-width="11"/>
      <path d="M59 77L158 77" stroke="#8fe6df" stroke-width="6"/>
      <circle cx="59" cy="77" r="12" fill="#ddf4f2" stroke="#052f37" stroke-width="4"/>
      <polygon points="122,0 141,11 141,33 122,44 103,33 103,11" fill="#052f37" stroke="#ddf4f2" stroke-width="5"/>
      <circle cx="158" cy="77" r="8.5" fill="#052f37" stroke="#ddf4f2" stroke-width="5"/>
      <polygon points="122,110 141,121 141,143 122,154 103,143 103,121" fill="#052f37" stroke="#ddf4f2" stroke-width="5"/>
    </g>
  </g>
</svg>
