<svg xmlns="http://www.w3.org/2000/svg" viewBox="0 0 64 64" role="img" aria-label="Index">
  <rect width="64" height="64" rx="10" fill="#0d0a08"/>
  <g transform="translate(5.6 8.2) scale(.30)" stroke-linecap="round" stroke-linejoin="round">
    <path d="M13 30L59 77" stroke="#faf7f0" stroke-width="19"/>
    <path d="M14 126L59 77" stroke="#faf7f0" stroke-width="19"/>
    <path d="M122 21L158 77L122 133" fill="none" stroke="#ddf4f2" stroke-width="5"/>
    <path d="M59 77L122 21" stroke="#78d5d0" stroke-width="11"/>
    <path d="M59 77L122 133" stroke="#78d5d0" stroke-width="11"/>
    <path d="M59 77L158 77" stroke="#8fe6df" stroke-width="6"/>
    <circle cx="59" cy="77" r="12" fill="#ddf4f2" stroke="#052f37" stroke-width="4"/>
    <polygon points="122,0 141,11 141,33 122,44 103,33 103,11" fill="#052f37" stroke="#ddf4f2" stroke-width="5"/>
    <circle cx="158" cy="77" r="8.5" fill="#052f37" stroke="#ddf4f2" stroke-width="5"/>
    <polygon points="122,110 141,121 141,143 122,154 103,143 103,121" fill="#052f37" stroke="#ddf4f2" stroke-width="5"/>
  </g>
</svg>
