<svg xmlns="http://www.w3.org/2000/svg" viewBox="0 0 64 64" role="img" aria-label="Index">
  <rect width="64" height="64" rx="10" fill="#0d0a08"/>
  <defs>
    <linearGradient id="faviconGraphStroke" x1="21.11" y1="30.33" x2="50.4" y2="45.12" gradientUnits="userSpaceOnUse">
      <stop stop-color="#ddf4f2"/>
      <stop offset="1" stop-color="#78d5d0"/>
    </linearGradient>
    <linearGradient id="faviconNodeFill" x1="32.42" y1="13.22" x2="55.91" y2="48.6" gradientUnits="userSpaceOnUse">
      <stop stop-color="#fff"/>
      <stop offset="1" stop-color="#ddf4f2"/>
    </linearGradient>
  </defs>
  <g transform="translate(4 8) scale(.29)" stroke-linecap="round" stroke-linejoin="round">
    <path d="M13 30L59 77" stroke="#faf7f0" stroke-width="18"/>
    <path d="M14 126L59 77" stroke="#faf7f0" stroke-width="18"/>
    <path d="M59 77L117 28" stroke="url(#faviconGraphStroke)" stroke-width="12"/>
    <path d="M59 77L119 128" stroke="url(#faviconGraphStroke)" stroke-width="12"/>
    <path d="M59 77L160 77" stroke="#78d5d0" stroke-width="7"/>
    <path d="M117 28L160 77L119 128" stroke="#ddf4f2" stroke-width="7"/>
    <circle cx="59" cy="77" r="15" fill="#ddf4f2"/>
    <polygon points="117,7 136,18 136,40 117,51 98,40 98,18" fill="#052f37" stroke="url(#faviconNodeFill)" stroke-width="6"/>
    <polygon points="160,56 179,67 179,89 160,100 141,89 141,67" fill="#052f37" stroke="url(#faviconNodeFill)" stroke-width="6"/>
    <polygon points="119,107 138,118 138,140 119,151 100,140 100,118" fill="#052f37" stroke="url(#faviconNodeFill)" stroke-width="6"/>
  </g>
</svg>
